# xmcd
#
# Track frame offsets: 
#        150
#        24272
#        54745
#        85405
#        101120
#        111152
#        125620
#        148660
#        162360
#        175910
#        184277
#        198245
#        208417
#        227510
#        243142
#
# Disc length: 3495 seconds
#
# Revision: 1
# Processed by: cddbd v1.5.1PL0 Copyright (c) Steve Scherf et al.
# Submitted via: ExactAudioCopy v0.95a4
#
DISCID=d50da50f
DTITLE=Son House - Delta Blues
DYEAR=2003
DGENRE=Blues
TTITLE0=Delta Blues
TTITLE1=Government Fleet Blues
TTITLE2=Walking Blues
TTITLE3=Shetland Pony Blues
TTITLE4=Levee Camp Blues
TTITLE5=Special Rider Blues
TTITLE6=Low Down Dirty Dog Blues
TTITLE7=Depot Blues
TTITLE8=American Defense
TTITLE9=Am I Right Or Wrong
TTITLE10=Walking Blues
TTITLE11=County Farm Blues
TTITLE12=The Pony Blues
TTITLE13=The Jinx Blues
TTITLE14=The Jinx Blues
EXTD=YEAR: 2003
EXTT0=
EXTT1=
EXTT2=
EXTT3=
EXTT4=
EXTT5=
EXTT6=
EXTT7=
EXTT8=
EXTT9=
EXTT10=
EXTT11=
EXTT12=
EXTT13=
EXTT14=
PLAYORDER=
